<svg width="512" height="512" xmlns="http://www.w3.org/2000/svg">

 <g>
  <title>background</title>
  <rect fill="none" id="canvas_background" height="402" width="582" y="-1" x="-1"/>
 </g>
 <g>
  <title>Layer 1</title>
  <path id="svg_4" fill="#f9f9f9" d="m255.968994,21.733c-131.738991,0 -238.572004,107.541002 -238.572004,240.205996c0,106.106995 68.361998,196.121002 163.205,227.910004c11.929001,2.220001 16.285004,-5.195984 16.285004,-11.566986c0,-5.713013 -0.205002,-20.817017 -0.330002,-40.856018c-66.360001,14.507019 -80.375,-32.208008 -80.375,-32.208008c-10.828003,-27.755981 -26.488998,-35.138977 -26.488998,-35.138977c-21.684006,-14.893005 1.612999,-14.591003 1.612999,-14.591003c23.947998,1.700989 36.533997,24.759003 36.533997,24.759003c21.295006,36.694 55.866005,26.10498 69.465004,19.946991c2.145996,-15.520996 8.317993,-26.105011 15.153992,-32.115997c-52.973999,-6.072998 -108.690002,-26.681 -108.690002,-118.699005c0,-26.229004 9.309998,-47.667999 24.576004,-64.477997c-2.475006,-6.070999 -10.646004,-30.507004 2.328995,-63.554001c0,0 20.044998,-6.455002 65.613007,24.613998c19.030991,-5.324997 39.431992,-7.981995 59.742004,-8.071991c20.25,0.122986 40.675995,2.746994 59.737976,8.104996c45.546997,-31.074005 65.559021,-24.614006 65.559021,-24.614006c13.001984,33.077003 4.832001,57.482002 2.386993,63.549004c15.296997,16.809998 24.515991,38.25 24.515991,64.48201c0,92.257996 -55.77298,112.562988 -108.919983,118.511993c8.55899,7.421997 16.190979,22.069 16.190979,44.471008c0,32.123993 -0.296997,58.019012 -0.296997,65.888c0,6.427002 4.292999,13.902985 16.402008,11.540009c94.696991,-31.824005 162.997986,-121.805023 162.997986,-227.883026c0.001038,-132.666 -106.83197,-240.205996 -238.633972,-240.205996l0,0zm0,0"/>
 </g>
</svg>